<svg width="1920" height="854" viewBox="0 0 1920 854" fill="none" xmlns="http://www.w3.org/2000/svg">
<g clip-path="url(#clip0_1124_10050)">
<rect width="1920" height="854" fill="white"/>
<path d="M1606.72 547.272C1774.41 547.272 1919.74 469.017 1919.74 223.072C1919.74 161.586 1914.15 -62 1562 -62" stroke="url(#paint0_linear_1124_10050)" stroke-width="178.869" stroke-linecap="round"/>
<path d="M-91.8608 1157.27C54.9114 1157.27 182.114 1088.78 182.114 873.513C182.114 819.696 177.222 624 -131 624" stroke="url(#paint1_linear_1124_10050)" stroke-width="156.557" stroke-linecap="round"/>
<path d="M670.043 565.188C656.228 565.188 645.07 561.469 636.569 554.03C628.333 546.326 624.215 536.629 624.215 524.939C624.215 513.25 628.333 503.553 636.569 495.849C645.07 488.145 656.228 484.292 670.043 484.292C683.592 484.292 694.484 488.145 702.72 495.849C711.221 503.553 715.472 513.25 715.472 524.939C715.472 536.363 711.221 545.927 702.72 553.631C694.484 561.336 683.592 565.188 670.043 565.188ZM739.294 450.021C739.294 426.908 743.412 406.718 751.648 389.449C760.149 372.181 771.706 358.898 786.317 349.599C800.929 340.301 817.135 335.652 834.934 335.652C849.28 335.652 862.032 338.707 873.19 344.817C884.614 350.662 893.514 358.765 899.89 369.126V267.11H978.394V562H899.89V530.917C893.78 541.278 885.145 549.514 873.987 555.624C862.829 561.734 849.679 564.79 834.536 564.79C816.736 564.79 800.531 560.14 785.919 550.842C771.573 541.544 760.149 528.26 751.648 510.992C743.412 493.458 739.294 473.134 739.294 450.021ZM900.288 450.021C900.288 435.675 896.303 424.385 888.333 416.149C880.629 407.913 871.065 403.795 859.641 403.795C847.952 403.795 838.255 407.913 830.551 416.149C822.847 424.119 818.994 435.41 818.994 450.021C818.994 464.367 822.847 475.791 830.551 484.292C838.255 492.528 847.952 496.646 859.641 496.646C871.065 496.646 880.629 492.528 888.333 484.292C896.303 476.057 900.288 464.633 900.288 450.021ZM1126.91 564.79C1104.59 564.79 1084.54 560.14 1066.74 550.842C1049.2 541.544 1035.39 528.26 1025.29 510.992C1015.2 493.724 1010.15 473.4 1010.15 450.021C1010.15 426.908 1015.2 406.718 1025.29 389.449C1035.65 372.181 1049.6 358.898 1067.14 349.599C1084.94 340.301 1104.99 335.652 1127.31 335.652C1149.62 335.652 1169.55 340.301 1187.08 349.599C1204.88 358.898 1218.83 372.181 1228.93 389.449C1239.29 406.718 1244.47 426.908 1244.47 450.021C1244.47 473.134 1239.29 493.458 1228.93 510.992C1218.83 528.26 1204.88 541.544 1187.08 550.842C1169.28 560.14 1149.23 564.79 1126.91 564.79ZM1126.91 497.044C1137.8 497.044 1146.84 493.059 1154.01 485.089C1161.45 476.854 1165.17 465.164 1165.17 450.021C1165.17 434.878 1161.45 423.322 1154.01 415.352C1146.84 407.382 1137.94 403.397 1127.31 403.397C1116.68 403.397 1107.78 407.382 1100.61 415.352C1093.44 423.322 1089.85 434.878 1089.85 450.021C1089.85 465.43 1093.3 477.119 1100.21 485.089C1107.12 493.059 1116.02 497.044 1126.91 497.044ZM1354.35 377.893C1363.12 365.141 1373.74 355.046 1386.23 347.607C1398.72 340.168 1412.13 336.449 1426.48 336.449V419.735H1404.56C1387.56 419.735 1374.94 423.056 1366.7 429.698C1358.47 436.34 1354.35 447.896 1354.35 464.367V562H1276.25V338.441H1354.35V377.893ZM1695.17 338.441L1553.31 668.4H1468.43L1521.83 552.436L1430.17 338.441H1517.05L1564.07 465.164L1609.5 338.441H1695.17Z" fill="#6283FA"/>
<path d="M282.332 390.415L282.332 571.069" stroke="#6283FA" stroke-width="85.0133" stroke-linecap="round"/>
<path d="M380.635 573.725C460.335 573.725 529.408 536.532 529.408 419.639C529.408 390.415 526.751 284.149 359.381 284.149" stroke="#FAD261" stroke-width="85.0133" stroke-linecap="round"/>
<path d="M362.032 486.058C404.539 496.685 441.732 472.974 441.732 425.061C441.732 414.414 441.732 363.85 362.033 374.478" stroke="#FAD261" stroke-width="42.5067" stroke-linecap="round"/>
<path d="M213.265 284.149H351.411" stroke="#6283FA" stroke-width="85.0133" stroke-linecap="round"/>
<path d="M1420.25 750.162C1421.01 748.567 1422.17 747.266 1423.74 746.258C1425.33 745.251 1427.21 744.747 1429.36 744.747C1431.46 744.747 1433.34 745.237 1434.99 746.216C1436.64 747.168 1437.92 748.539 1438.85 750.33C1439.8 752.093 1440.27 754.149 1440.27 756.5C1440.27 758.85 1439.8 760.921 1438.85 762.712C1437.92 764.502 1436.62 765.887 1434.94 766.867C1433.29 767.846 1431.43 768.336 1429.36 768.336C1427.18 768.336 1425.29 767.846 1423.7 766.867C1422.13 765.859 1420.98 764.558 1420.25 762.963V768H1417.36V736.941H1420.25V750.162ZM1437.29 756.5C1437.29 754.597 1436.92 752.96 1436.16 751.589C1435.43 750.19 1434.43 749.127 1433.14 748.399C1431.85 747.672 1430.4 747.308 1428.77 747.308C1427.21 747.308 1425.77 747.686 1424.45 748.441C1423.16 749.197 1422.14 750.274 1421.39 751.673C1420.63 753.072 1420.25 754.695 1420.25 756.542C1420.25 758.388 1420.63 760.011 1421.39 761.41C1422.14 762.809 1423.16 763.887 1424.45 764.642C1425.77 765.398 1427.21 765.775 1428.77 765.775C1430.4 765.775 1431.85 765.412 1433.14 764.684C1434.43 763.929 1435.43 762.851 1436.16 761.452C1436.92 760.025 1437.29 758.374 1437.29 756.5ZM1464.57 745.083L1450.97 778.787H1447.91L1452.35 767.874L1442.95 745.083H1446.18L1453.99 764.642L1461.55 745.083H1464.57ZM1487.96 768.336C1485.33 768.336 1483.18 767.734 1481.5 766.531C1479.85 765.3 1478.92 763.635 1478.73 761.536H1481.75C1481.89 762.823 1482.49 763.873 1483.55 764.684C1484.64 765.468 1486.1 765.859 1487.92 765.859C1489.51 765.859 1490.76 765.482 1491.65 764.726C1492.58 763.971 1493.04 763.033 1493.04 761.914C1493.04 761.131 1492.79 760.487 1492.28 759.983C1491.78 759.48 1491.14 759.088 1490.35 758.808C1489.6 758.5 1488.56 758.179 1487.25 757.843C1485.54 757.395 1484.16 756.947 1483.09 756.5C1482.03 756.052 1481.12 755.394 1480.36 754.527C1479.64 753.632 1479.27 752.442 1479.27 750.959C1479.27 749.84 1479.61 748.805 1480.28 747.853C1480.95 746.902 1481.9 746.147 1483.13 745.587C1484.37 745.027 1485.76 744.747 1487.33 744.747C1489.79 744.747 1491.78 745.377 1493.29 746.636C1494.8 747.867 1495.61 749.574 1495.73 751.757H1492.79C1492.7 750.414 1492.17 749.336 1491.19 748.525C1490.24 747.686 1488.93 747.266 1487.25 747.266C1485.76 747.266 1484.56 747.616 1483.64 748.315C1482.71 749.015 1482.25 749.882 1482.25 750.917C1482.25 751.813 1482.52 752.554 1483.05 753.142C1483.61 753.702 1484.3 754.149 1485.11 754.485C1485.92 754.793 1487.01 755.143 1488.38 755.534C1490.03 755.982 1491.35 756.416 1492.33 756.835C1493.31 757.255 1494.14 757.871 1494.84 758.682C1495.54 759.494 1495.91 760.571 1495.94 761.914C1495.94 763.145 1495.6 764.25 1494.93 765.23C1494.26 766.181 1493.32 766.937 1492.12 767.496C1490.91 768.056 1489.53 768.336 1487.96 768.336ZM1504.36 750.12C1505.09 748.581 1506.24 747.308 1507.8 746.3C1509.4 745.265 1511.29 744.747 1513.47 744.747C1515.54 744.747 1517.4 745.237 1519.05 746.216C1520.73 747.168 1522.03 748.539 1522.96 750.33C1523.91 752.093 1524.38 754.149 1524.38 756.5C1524.38 758.85 1523.91 760.921 1522.96 762.712C1522.03 764.502 1520.73 765.887 1519.05 766.867C1517.4 767.846 1515.54 768.336 1513.47 768.336C1511.32 768.336 1509.44 767.832 1507.85 766.825C1506.25 765.789 1505.09 764.502 1504.36 762.963V778.829H1501.47V745.083H1504.36V750.12ZM1521.4 756.5C1521.4 754.597 1521.02 752.96 1520.27 751.589C1519.54 750.19 1518.53 749.127 1517.25 748.399C1515.96 747.672 1514.51 747.308 1512.88 747.308C1511.32 747.308 1509.87 747.686 1508.56 748.441C1507.27 749.197 1506.25 750.274 1505.5 751.673C1504.74 753.072 1504.36 754.695 1504.36 756.542C1504.36 758.388 1504.74 760.011 1505.5 761.41C1506.25 762.809 1507.27 763.887 1508.56 764.642C1509.87 765.398 1511.32 765.775 1512.88 765.775C1514.51 765.775 1515.96 765.412 1517.25 764.684C1518.53 763.929 1519.54 762.851 1520.27 761.452C1521.02 760.025 1521.4 758.374 1521.4 756.5ZM1528.45 756.5C1528.45 754.149 1528.91 752.093 1529.83 750.33C1530.78 748.539 1532.08 747.168 1533.73 746.216C1535.41 745.237 1537.3 744.747 1539.4 744.747C1541.58 744.747 1543.46 745.251 1545.02 746.258C1546.62 747.266 1547.77 748.553 1548.47 750.12V745.083H1551.4V768H1548.47V762.921C1547.74 764.488 1546.58 765.789 1544.98 766.825C1543.42 767.832 1541.54 768.336 1539.36 768.336C1537.29 768.336 1535.41 767.846 1533.73 766.867C1532.08 765.887 1530.78 764.502 1529.83 762.712C1528.91 760.921 1528.45 758.85 1528.45 756.5ZM1548.47 756.542C1548.47 754.695 1548.09 753.072 1547.33 751.673C1546.58 750.274 1545.54 749.197 1544.23 748.441C1542.94 747.686 1541.51 747.308 1539.95 747.308C1538.32 747.308 1536.87 747.672 1535.58 748.399C1534.29 749.127 1533.27 750.19 1532.52 751.589C1531.79 752.96 1531.43 754.597 1531.43 756.5C1531.43 758.374 1531.79 760.025 1532.52 761.452C1533.27 762.851 1534.29 763.929 1535.58 764.684C1536.87 765.412 1538.32 765.775 1539.95 765.775C1541.51 765.775 1542.94 765.398 1544.23 764.642C1545.54 763.887 1546.58 762.809 1547.33 761.41C1548.09 760.011 1548.47 758.388 1548.47 756.542ZM1556.77 756.542C1556.77 754.163 1557.24 752.093 1558.2 750.33C1559.15 748.539 1560.46 747.168 1562.14 746.216C1563.82 745.237 1565.74 744.747 1567.89 744.747C1570.72 744.747 1573.04 745.447 1574.86 746.846C1576.71 748.245 1577.89 750.148 1578.43 752.554H1575.28C1574.89 750.903 1574.03 749.616 1572.72 748.693C1571.43 747.741 1569.82 747.266 1567.89 747.266C1566.35 747.266 1564.97 747.616 1563.74 748.315C1562.5 749.015 1561.53 750.064 1560.8 751.463C1560.1 752.834 1559.75 754.527 1559.75 756.542C1559.75 758.556 1560.1 760.263 1560.8 761.662C1561.53 763.061 1562.5 764.111 1563.74 764.81C1564.97 765.51 1566.35 765.859 1567.89 765.859C1569.82 765.859 1571.43 765.398 1572.72 764.474C1574.03 763.523 1574.89 762.208 1575.28 760.529H1578.43C1577.89 762.879 1576.71 764.768 1574.86 766.195C1573.01 767.622 1570.69 768.336 1567.89 768.336C1565.74 768.336 1563.82 767.86 1562.14 766.909C1560.46 765.929 1559.15 764.558 1558.2 762.795C1557.24 761.005 1556.77 758.92 1556.77 756.542ZM1604.59 755.366C1604.59 756.374 1604.56 757.143 1604.5 757.675H1585.49C1585.57 759.41 1585.99 760.893 1586.75 762.124C1587.5 763.355 1588.5 764.292 1589.73 764.936C1590.96 765.552 1592.3 765.859 1593.76 765.859C1595.66 765.859 1597.26 765.398 1598.54 764.474C1599.86 763.551 1600.73 762.306 1601.15 760.739H1604.25C1603.69 762.977 1602.49 764.81 1600.64 766.237C1598.82 767.636 1596.53 768.336 1593.76 768.336C1591.6 768.336 1589.67 767.86 1587.97 766.909C1586.26 765.929 1584.92 764.558 1583.94 762.795C1582.99 761.005 1582.51 758.92 1582.51 756.542C1582.51 754.163 1582.99 752.079 1583.94 750.288C1584.89 748.497 1586.22 747.126 1587.92 746.175C1589.63 745.223 1591.58 744.747 1593.76 744.747C1595.94 744.747 1597.84 745.223 1599.47 746.175C1601.12 747.126 1602.38 748.413 1603.24 750.036C1604.14 751.631 1604.59 753.408 1604.59 755.366ZM1601.61 755.282C1601.63 753.576 1601.28 752.121 1600.56 750.917C1599.86 749.714 1598.89 748.805 1597.66 748.189C1596.43 747.574 1595.09 747.266 1593.63 747.266C1591.45 747.266 1589.59 747.965 1588.05 749.364C1586.51 750.763 1585.66 752.736 1585.49 755.282H1601.61ZM1617.85 768.336C1615.22 768.336 1613.07 767.734 1611.39 766.531C1609.74 765.3 1608.81 763.635 1608.62 761.536H1611.64C1611.78 762.823 1612.38 763.873 1613.45 764.684C1614.54 765.468 1615.99 765.859 1617.81 765.859C1619.41 765.859 1620.65 765.482 1621.55 764.726C1622.47 763.971 1622.93 763.033 1622.93 761.914C1622.93 761.131 1622.68 760.487 1622.18 759.983C1621.67 759.48 1621.03 759.088 1620.25 758.808C1619.49 758.5 1618.45 758.179 1617.14 757.843C1615.43 757.395 1614.05 756.947 1612.98 756.5C1611.92 756.052 1611.01 755.394 1610.26 754.527C1609.53 753.632 1609.16 752.442 1609.16 750.959C1609.16 749.84 1609.5 748.805 1610.17 747.853C1610.84 746.902 1611.79 746.147 1613.03 745.587C1614.26 745.027 1615.66 744.747 1617.22 744.747C1619.69 744.747 1621.67 745.377 1623.18 746.636C1624.69 747.867 1625.51 749.574 1625.62 751.757H1622.68C1622.6 750.414 1622.06 749.336 1621.08 748.525C1620.13 747.686 1618.82 747.266 1617.14 747.266C1615.66 747.266 1614.45 747.616 1613.53 748.315C1612.61 749.015 1612.14 749.882 1612.14 750.917C1612.14 751.813 1612.41 752.554 1612.94 753.142C1613.5 753.702 1614.19 754.149 1615 754.485C1615.81 754.793 1616.9 755.143 1618.27 755.534C1619.92 755.982 1621.24 756.416 1622.22 756.835C1623.2 757.255 1624.04 757.871 1624.74 758.682C1625.44 759.494 1625.8 760.571 1625.83 761.914C1625.83 763.145 1625.49 764.25 1624.82 765.23C1624.15 766.181 1623.21 766.937 1622.01 767.496C1620.8 768.056 1619.42 768.336 1617.85 768.336ZM1642.27 744.664C1644.01 744.664 1645.56 745.027 1646.93 745.755C1648.33 746.482 1649.42 747.602 1650.2 749.113C1651.01 750.596 1651.42 752.414 1651.42 754.569V768H1648.52V754.905C1648.52 752.414 1647.9 750.512 1646.64 749.197C1645.4 747.881 1643.71 747.224 1641.56 747.224C1639.35 747.224 1637.58 747.923 1636.27 749.322C1634.95 750.721 1634.3 752.778 1634.3 755.492V768H1631.36V736.941H1634.3V748.987C1635.02 747.616 1636.09 746.552 1637.49 745.797C1638.91 745.041 1640.51 744.664 1642.27 744.664ZM1659.39 740.76C1658.8 740.76 1658.3 740.55 1657.88 740.131C1657.46 739.711 1657.25 739.193 1657.25 738.578C1657.25 737.962 1657.46 737.458 1657.88 737.067C1658.3 736.647 1658.8 736.437 1659.39 736.437C1659.98 736.437 1660.48 736.647 1660.9 737.067C1661.32 737.458 1661.53 737.962 1661.53 738.578C1661.53 739.193 1661.32 739.711 1660.9 740.131C1660.48 740.55 1659.98 740.76 1659.39 740.76ZM1660.86 745.083V768H1657.92V745.083H1660.86ZM1670.41 750.12C1671.13 748.581 1672.28 747.308 1673.85 746.3C1675.44 745.265 1677.33 744.747 1679.51 744.747C1681.58 744.747 1683.45 745.237 1685.1 746.216C1686.77 747.168 1688.08 748.539 1689 750.33C1689.95 752.093 1690.43 754.149 1690.43 756.5C1690.43 758.85 1689.95 760.921 1689 762.712C1688.08 764.502 1686.77 765.887 1685.1 766.867C1683.45 767.846 1681.58 768.336 1679.51 768.336C1677.36 768.336 1675.48 767.832 1673.89 766.825C1672.29 765.789 1671.13 764.502 1670.41 762.963V778.829H1667.51V745.083H1670.41V750.12ZM1687.45 756.5C1687.45 754.597 1687.07 752.96 1686.31 751.589C1685.59 750.19 1684.58 749.127 1683.29 748.399C1682 747.672 1680.55 747.308 1678.93 747.308C1677.36 747.308 1675.92 747.686 1674.6 748.441C1673.32 749.197 1672.29 750.274 1671.54 751.673C1670.78 753.072 1670.41 754.695 1670.41 756.542C1670.41 758.388 1670.78 760.011 1671.54 761.41C1672.29 762.809 1673.32 763.887 1674.6 764.642C1675.92 765.398 1677.36 765.775 1678.93 765.775C1680.55 765.775 1682 765.412 1683.29 764.684C1684.58 763.929 1685.59 762.851 1686.31 761.452C1687.07 760.025 1687.45 758.374 1687.45 756.5Z" fill="#979797"/>
<path d="M109.124 139.93C193.937 109.515 253.249 43.5761 208.64 -80.8171C197.488 -111.915 154.108 -223.986 -24 -160.115" stroke="url(#paint2_linear_1124_10050)" stroke-width="73.0963" stroke-linecap="round"/>
</g>
<defs>
<linearGradient id="paint0_linear_1124_10050" x1="2226.16" y1="-585.808" x2="1519.39" y2="300.154" gradientUnits="userSpaceOnUse">
<stop stop-color="#FAD261"/>
<stop offset="1" stop-color="#FAD261" stop-opacity="0"/>
</linearGradient>
<linearGradient id="paint1_linear_1124_10050" x1="-367.758" y1="842.378" x2="308.381" y2="762.291" gradientUnits="userSpaceOnUse">
<stop stop-color="#FAD261"/>
<stop offset="1" stop-color="#FAD261" stop-opacity="0"/>
</linearGradient>
<linearGradient id="paint2_linear_1124_10050" x1="182.752" y1="-685.692" x2="284.066" y2="186.841" gradientUnits="userSpaceOnUse">
<stop stop-color="#FAD261"/>
<stop offset="0.707615" stop-color="#FAD261" stop-opacity="0.186541"/>
<stop offset="1" stop-color="#FAD261" stop-opacity="0"/>
</linearGradient>
<clipPath id="clip0_1124_10050">
<rect width="1920" height="854" fill="white"/>
</clipPath>
</defs>
</svg>
